<?xml version="1.0" encoding="UTF-8" standalone="no"?>
<!-- Created with Inkscape (http://www.inkscape.org/) -->

<svg
   version="1.1"
   id="svg3879"
   xml:space="preserve"
   width="682.66669"
   height="682.66669"
   viewBox="0 0 682.66669 682.66669"
   xmlns="http://www.w3.org/2000/svg"
   xmlns:svg="http://www.w3.org/2000/svg"><defs
     id="defs3883"><clipPath
       clipPathUnits="userSpaceOnUse"
       id="clipPath3893"><path
         d="M 0,512 H 512 V 0 H 0 Z"
         id="path3891" /></clipPath></defs><g
     id="g3885"
     transform="matrix(1.3333333,0,0,-1.3333333,0,682.66667)"><g
       id="g3887"><g
         id="g3889"
         clip-path="url(#clipPath3893)"><g
           id="g3895"
           transform="translate(31.9502,186.52)"><path
             d="m 0,0 v 156.73 c 0,52.28 42.38,94.66 94.66,94.66 h 144.43"
             style="fill:none;stroke:#000000;stroke-width:15;stroke-linecap:round;stroke-linejoin:round;stroke-miterlimit:10;stroke-dasharray:none;stroke-opacity:1"
             id="path3897" /></g><g
           id="g3899"
           transform="translate(31.9502,106.1099)"><path
             d="M 0,0 V 50.47"
             style="fill:none;stroke:#000000;stroke-width:15;stroke-linecap:round;stroke-linejoin:round;stroke-miterlimit:10;stroke-dasharray:none;stroke-opacity:1"
             id="path3901" /></g><g
           id="g3903"
           transform="translate(371.9639,106.1006)"><path
             d="M 0,0 V 151.31"
             style="fill:none;stroke:#000000;stroke-width:15;stroke-linecap:round;stroke-linejoin:round;stroke-miterlimit:10;stroke-dasharray:none;stroke-opacity:1"
             id="path3905" /></g><g
           id="g3907"
           transform="translate(341.9639,263.3203)"><path
             d="m 0,0 v -23.8 c 0,-10.1 -8.189,-18.29 -18.3,-18.29 h -243.42 c -10.1,0 -18.29,8.19 -18.29,18.29 V 79.93 c 0,35.71 28.95,64.66 64.66,64.66 h 133.46"
             style="fill:none;stroke:#000000;stroke-width:15;stroke-linecap:round;stroke-linejoin:round;stroke-miterlimit:10;stroke-dasharray:none;stroke-opacity:1"
             id="path3909" /></g><g
           id="g3911"
           transform="translate(308.3584,221.228)"><path
             d="M 0,0 C 0,22.866 -18.536,41.401 -41.401,41.401 -64.267,41.401 -82.803,22.866 -82.803,0"
             style="fill:none;stroke:#000000;stroke-width:15;stroke-linecap:round;stroke-linejoin:round;stroke-miterlimit:10;stroke-dasharray:none;stroke-opacity:1"
             id="path3913" /></g><g
           id="g3915"
           transform="translate(359.4258,109.9004)"><path
             d="m 0,0 h -314.937 c -12.483,0 -22.603,-10.119 -22.603,-22.602 v -0.001 c 0,-12.482 10.12,-22.602 22.603,-22.602 H 0 c 12.483,0 22.603,10.12 22.603,22.602 v 0.001 C 22.603,-10.119 12.483,0 0,0 Z"
             style="fill:none;stroke:#000000;stroke-width:15;stroke-linecap:round;stroke-linejoin:round;stroke-miterlimit:10;stroke-dasharray:none;stroke-opacity:1"
             id="path3917" /></g><g
           id="g3919"
           transform="translate(87.396,7.5005)"><path
             d="M 0,0 V 0 C -15.794,0 -28.598,12.804 -28.598,28.598 V 57.195 H 28.598 V 28.598 C 28.598,12.804 15.794,0 0,0 Z"
             style="fill:none;stroke:#000000;stroke-width:15;stroke-linecap:round;stroke-linejoin:round;stroke-miterlimit:10;stroke-dasharray:none;stroke-opacity:1"
             id="path3921" /></g><g
           id="g3923"
           transform="translate(313.5254,7.5005)"><path
             d="M 0,0 V 0 C -15.794,0 -28.598,12.804 -28.598,28.598 V 57.195 H 28.598 V 28.598 C 28.598,12.804 15.794,0 0,0 Z"
             style="fill:none;stroke:#000000;stroke-width:15;stroke-linecap:round;stroke-linejoin:round;stroke-miterlimit:10;stroke-dasharray:none;stroke-opacity:1"
             id="path3925" /></g><g
           id="g3927"
           transform="translate(79.1016,130.8872)"><path
             d="m 0,0 v 0 c -9.183,0 -16.627,7.444 -16.627,16.627 v 27.61 c 0,9.183 7.444,16.627 16.627,16.627 9.183,0 16.627,-7.444 16.627,-16.627 V 16.627 C 16.627,7.444 9.183,0 0,0 Z"
             style="fill:none;stroke:#000000;stroke-width:15;stroke-linecap:round;stroke-linejoin:round;stroke-miterlimit:10;stroke-dasharray:none;stroke-opacity:1"
             id="path3929" /></g><g
           id="g3931"
           transform="translate(324.8125,130.8872)"><path
             d="m 0,0 v 0 c -9.183,0 -16.627,7.444 -16.627,16.627 v 27.61 c 0,9.183 7.444,16.627 16.627,16.627 9.184,0 16.627,-7.444 16.627,-16.627 V 16.627 C 16.627,7.444 9.184,0 0,0 Z"
             style="fill:none;stroke:#000000;stroke-width:15;stroke-linecap:round;stroke-linejoin:round;stroke-miterlimit:10;stroke-dasharray:none;stroke-opacity:1"
             id="path3933" /></g><g
           id="g3935"
           transform="translate(136.6128,173.0957)"><path
             d="M 0,0 H 130.689"
             style="fill:none;stroke:#000000;stroke-width:15;stroke-linecap:round;stroke-linejoin:round;stroke-miterlimit:10;stroke-dasharray:none;stroke-opacity:1"
             id="path3937" /></g><g
           id="g3939"
           transform="translate(136.6128,146.2241)"><path
             d="M 0,0 H 130.689"
             style="fill:none;stroke:#000000;stroke-width:15;stroke-linecap:round;stroke-linejoin:round;stroke-miterlimit:10;stroke-dasharray:none;stroke-opacity:1"
             id="path3941" /></g><g
           id="g3943"
           transform="translate(19.7271,226.1953)"><path
             d="m 0,0 v 0 c 6.753,0 12.227,5.475 12.227,12.227 v 83.512 c 0,6.752 -5.474,12.227 -12.227,12.227 -6.753,0 -12.227,-5.475 -12.227,-12.227 V 12.227 C -12.227,5.475 -6.753,0 0,0 Z"
             style="fill:none;stroke:#000000;stroke-width:15;stroke-linecap:round;stroke-linejoin:round;stroke-miterlimit:10;stroke-dasharray:none;stroke-opacity:1"
             id="path3945" /></g><g
           id="g3947"
           transform="translate(396.4102,258.0703)"><path
             d="m 0,0 v -19.65 c 0,-6.75 -5.47,-12.22 -12.22,-12.22 -6.75,0 -12.23,5.47 -12.23,12.22 v 18.99"
             style="fill:none;stroke:#000000;stroke-width:15;stroke-linecap:round;stroke-linejoin:round;stroke-miterlimit:10;stroke-dasharray:none;stroke-opacity:1"
             id="path3949" /></g><g
           id="g3951"
           transform="translate(493.7695,330.3198)"><path
             d="m 0,0 c 6.9,15.42 10.73,32.5 10.73,50.48 0,68.32 -55.379,123.7 -123.7,123.7 -68.319,0 -123.7,-55.38 -123.7,-123.7 0,-68.32 55.381,-123.7 123.7,-123.7 39.63,0 74.91,18.63 97.55,47.62"
             style="fill:none;stroke:#000000;stroke-width:15;stroke-linecap:round;stroke-linejoin:round;stroke-miterlimit:10;stroke-dasharray:none;stroke-opacity:1"
             id="path3953" /></g><g
           id="g3955"
           transform="translate(354.2656,401.8892)"><path
             d="m 0,0 c -22.056,-9.504 -37.5,-31.443 -37.5,-56.983 0,-34.257 27.771,-62.037 62.027,-62.037 19.44,0 36.792,8.94 48.161,22.942"
             style="fill:none;stroke:#000000;stroke-width:15;stroke-linecap:round;stroke-linejoin:round;stroke-miterlimit:10;stroke-dasharray:none;stroke-opacity:1"
             id="path3957" /></g><g
           id="g3959"
           transform="translate(438.8018,298.7549)"><path
             d="m 0,0 c -4.65,0 -9.171,2.416 -11.657,6.735 l -18.764,32.59 h -28.895 c -6.274,0 -11.714,4.342 -13.103,10.461 l -13.394,58.963 c -1.646,7.236 2.889,14.436 10.125,16.08 7.236,1.643 14.437,-2.89 16.081,-10.127 L -48.589,66.2 h 25.937 c 4.806,0 9.247,-2.567 11.644,-6.733 L 11.632,20.145 C 15.336,13.713 13.124,5.498 6.692,1.794 4.579,0.579 2.274,0 0,0 Z"
             style="fill:none;stroke:#000000;stroke-width:15;stroke-linecap:round;stroke-linejoin:round;stroke-miterlimit:10;stroke-dasharray:none;stroke-opacity:1"
             id="path3961" /></g><g
           id="g3963"
           transform="translate(387.709,462.4429)"><path
             d="M 0,0 C 0,11.353 -9.203,20.555 -20.555,20.555 -31.907,20.555 -41.11,11.353 -41.11,0 c 0,-11.352 9.203,-20.555 20.555,-20.555 C -9.203,-20.555 0,-11.352 0,0 Z"
             style="fill:none;stroke:#000000;stroke-width:15;stroke-linecap:round;stroke-linejoin:round;stroke-miterlimit:10;stroke-dasharray:none;stroke-opacity:1"
             id="path3965" /></g></g></g></g></svg>
