<?xml version="1.0" encoding="UTF-8"?>
<svg width="1200pt" height="1200pt" version="1.1" viewBox="0 0 1200 1200" xmlns="http://www.w3.org/2000/svg" xmlns:svgjs="http://svgjs.com/svgjs">
 <path d="m1017.1 239.26h-360c-15.906 0.019531-31.156 6.3477-42.406 17.594-11.246 11.25-17.574 26.5-17.594 42.406v99.422l-117.02 107.75c-3.6406 3.3516-4.8516 8.5859-3.0547 13.195 1.7969 4.6055 6.2383 7.6367 11.18 7.6367h108.9v276c0.019531 15.906 6.3438 31.156 17.594 42.406 11.25 11.246 26.5 17.574 42.406 17.594h360c15.906-0.019531 31.156-6.3477 42.406-17.594 11.246-11.25 17.574-26.5 17.594-42.406v-504c-0.019532-15.906-6.3477-31.156-17.594-42.406-11.25-11.246-26.5-17.574-42.406-17.594zm36 564c-0.011719 9.543-3.8047 18.695-10.555 25.445s-15.902 10.543-25.445 10.555h-360c-9.543-0.011719-18.695-3.8047-25.445-10.555-6.7461-6.75-10.543-15.902-10.555-25.445v-288c0-6.6289-5.3711-12-12-12h-90.145l98.27-90.484c2.4688-2.2734 3.875-5.4766 3.875-8.832v-104.68c0.011718-9.543 3.8047-18.695 10.555-25.445 6.75-6.7461 15.902-10.543 25.445-10.555h360c9.543 0.011719 18.695 3.8086 25.445 10.555 6.7461 6.75 10.543 15.902 10.555 25.445zm-808.07-250.42 16.926 506.2c0.10938 3.1797-1.0547 6.2734-3.2305 8.5977-2.1719 2.3242-5.1836 3.6875-8.3633 3.793l-0.40234 0.007812h-0.003907c-6.4688-0.003906-11.773-5.1328-11.984-11.602l-16.93-506.2c-0.10547-3.1797 1.0586-6.2734 3.2305-8.5977 2.1758-2.3242 5.1836-3.6875 8.3633-3.7969 3.1914-0.14062 6.3047 1.0117 8.6367 3.1914 2.332 2.1836 3.6875 5.2148 3.7578 8.4062zm-2.5547-63.043c-13.391 3.0938-25.648 9.875-35.379 19.578-9.7344 9.7031-16.555 21.938-19.688 35.32l-40.875 171.88c-1.5352 6.4453-8.0039 10.43-14.449 8.8945-6.4453-1.5352-10.43-8.0039-8.8945-14.449l40.875-171.88c4.1484-17.723 13.18-33.93 26.07-46.781 12.891-12.852 29.125-21.832 46.859-25.926l87.535-20.531v-0.003906c15.887-3.7852 28.703-15.48 33.926-30.953l85.242-255.67c5.2695-15.148 18.086-26.434 33.781-29.742 15.695-3.3086 31.977 1.8438 42.91 13.574 10.938 11.734 14.934 28.336 10.531 43.758l-90.277 316.46v547.23c0 6.6289-5.3711 12-12 12-6.625 0-12-5.3711-12-12v-548.9c0-1.1172 0.15625-2.2227 0.46484-3.2969l90.738-318.08v0.003906c1.6523-5.8125 0.82031-12.047-2.3047-17.219-3.1211-5.168-8.25-8.8086-14.16-10.055-5.1602-1.0625-10.531-0.22656-15.121 2.3594-4.5898 2.582-8.0938 6.7383-9.8633 11.699l-85.172 255.47c-7.8867 23.355-27.234 41.008-51.211 46.73zm-24.633-104.81v0.003907c4.6992 13.539 13.5 25.281 25.176 33.594 11.676 8.3125 25.652 12.781 39.984 12.785 5.4375 0 10.852-0.63672 16.137-1.8984 16.676-3.9219 31.293-13.902 41.02-28.004 9.7227-14.098 13.859-31.309 11.598-48.289l-4.5938-35.086c-2.543-19.422-13.199-36.855-29.324-47.977-16.125-11.121-36.207-14.883-55.266-10.359l-7.0898 1.6836v-0.003906c-19.055 4.5312-35.301 16.926-44.699 34.113-9.3984 17.184-11.078 37.547-4.6133 56.035zm13.992-77.918v0.003907c6.1445-11.219 16.754-19.312 29.195-22.281l7.0859-1.6836v0.003906c3.4766-0.83203 7.0391-1.2578 10.617-1.2617 9.1133 0.011719 18 2.8125 25.477 8.0234 10.527 7.2656 17.488 18.652 19.152 31.336l4.5938 35.086c1.9531 14.91-3.6445 29.816-14.926 39.762-11.285 9.9414-26.773 13.621-41.324 9.8125-14.547-3.8086-26.25-14.605-31.211-28.801l-11.672-33.402v-0.003907c-4.2891-12.066-3.1914-25.391 3.0117-36.59zm108.51 764.37v0.003906c-6.625 0-12-5.3711-12-12v-345.64c0-6.6289 5.375-12 12-12 6.6289 0 12 5.3711 12 12v345.64c0 6.6289-5.3711 12-11.996 12zm411.61-490.88c-11.039 0-21.625 4.3828-29.434 12.188-7.8047 7.8047-12.191 18.391-12.191 29.43 0 11.035 4.3828 21.625 12.188 29.43 7.8047 7.8047 18.391 12.191 29.43 12.191 11.039 0 21.625-4.3828 29.43-12.188 7.8047-7.8086 12.191-18.395 12.191-29.434-0.011719-11.031-4.3984-21.609-12.199-29.414-7.8047-7.8008-18.379-12.191-29.414-12.203zm0 59.238c-4.6719 0-9.1562-1.8516-12.461-5.1562-3.3047-3.3047-5.1641-7.7852-5.1641-12.461 0-4.6719 1.8555-9.1523 5.1602-12.457 3.3008-3.3047 7.7852-5.1641 12.457-5.1641 4.6719 0 9.1562 1.8555 12.461 5.1602s5.1602 7.7852 5.1602 12.457c-0.003906 4.6719-1.8633 9.1484-5.1641 12.453-3.3008 3.3008-7.7773 5.1602-12.449 5.168zm170.3-59.238c-11.039 0-21.625 4.3828-29.434 12.188-7.8047 7.8047-12.191 18.391-12.191 29.43 0 11.035 4.3828 21.625 12.188 29.43 7.8047 7.8047 18.391 12.191 29.43 12.191 11.039 0 21.625-4.3828 29.43-12.188 7.8047-7.8086 12.191-18.395 12.191-29.434-0.011718-11.031-4.3984-21.609-12.199-29.414-7.8047-7.8008-18.379-12.191-29.414-12.203zm0 59.238c-4.6719 0-9.1562-1.8516-12.461-5.1562-3.3047-3.3047-5.1641-7.7852-5.1641-12.457 0-4.6758 1.8555-9.1562 5.1602-12.461 3.3008-3.3047 7.7852-5.1641 12.457-5.1641 4.6719 0 9.1562 1.8555 12.461 5.1602s5.1602 7.7852 5.1602 12.457c-0.003906 4.6719-1.8633 9.1484-5.1641 12.453-3.3008 3.3008-7.7773 5.1602-12.449 5.168zm-85.918-110.24c0.03125-20.094 10.77-38.648 28.176-48.688 17.406-10.035 38.84-10.035 56.246 0 17.406 10.039 28.145 28.594 28.172 48.688 0 6.6289-5.3711 12-12 12-6.625 0-12-5.3711-12-12-0.019531-11.523-6.1797-22.164-16.164-27.918s-22.277-5.7539-32.262 0-16.145 16.395-16.168 27.918c0 6.6289-5.3711 12-12 12-6.625 0-12-5.3711-12-12zm174.77-24.062-17.621-0.003906v-53.609c-0.011719-13-5.1797-25.461-14.371-34.652-9.1875-9.1914-21.648-14.359-34.648-14.375h-214.72c-13 0.015625-25.461 5.1836-34.652 14.375-9.1914 9.1914-14.359 21.652-14.375 34.652v53.613l-17.613-0.003906c-6.6289 0.003906-12 5.375-12 12v38.047c0 3.1836 1.2656 6.2344 3.5156 8.4844s5.3008 3.5156 8.4844 3.5156h17.613v150.89c0 3.1836 1.2656 6.2344 3.5156 8.4844s5.3008 3.5156 8.4844 3.5156h2.8125v25.027c0.007812 7.1055 2.8359 13.918 7.8594 18.945 5.0273 5.0234 11.84 7.8516 18.945 7.8594h29.621c7.1055-0.007813 13.922-2.832 18.949-7.8594 5.0234-5.0273 7.8516-11.84 7.8594-18.945v-25.027h116.68v25.027c0.007813 7.1055 2.8359 13.922 7.8633 18.945 5.0273 5.0273 11.844 7.8516 18.949 7.8594h29.613c7.1094-0.007813 13.922-2.832 18.949-7.8594 5.0273-5.0234 7.8555-11.84 7.8633-18.945v-25.027h2.8086c3.1797 0 6.2344-1.2656 8.4844-3.5156s3.5156-5.3008 3.5156-8.4844v-150.89h17.621-0.003906c6.6289 0 12-5.3711 12-12v-38.047c0-6.625-5.3711-11.996-12-12zm-41.621 200.93h-264.77v-13.02h264.77zm-264.77-37.02 0.003907-94.465h264.77v94.465zm0-217.53 0.003907-0.003906c0.007812-6.6328 2.6445-12.996 7.3398-17.688 4.6914-4.6914 11.051-7.3281 17.688-7.3359h214.72c6.6367 0.007812 12.996 2.6484 17.688 7.3398 4.6875 4.6914 7.3281 11.051 7.3359 17.688v99.062h-264.77v-99.062zm-29.613 77.613h5.6133v14.043h-5.6133zm79.664 225.96c-0.003906 1.5469-1.2578 2.8008-2.8086 2.8047h-29.621c-1.5469-0.003907-2.8008-1.2578-2.8047-2.8047v-25.027h35.23zm199.92 0h-0.003906c-0.003906 1.5508-1.2617 2.8047-2.8125 2.8047h-29.613c-1.5508 0-2.8086-1.2539-2.8125-2.8047v-25.027h35.238zm44.426-211.92h-5.625v-14.047h5.6211zm-232.34-158.3h140.68c6.6289 0 12-5.3711 12-12v-44.426c0-3.1836-1.2656-6.2344-3.5156-8.4844s-5.3008-3.5156-8.4844-3.5156h-140.68c-6.6289 0-12 5.3711-12 12v44.426c0 6.6289 5.3711 12 12 12zm12-44.426h116.68v20.426h-116.68z" fill="#ff001b"/>
</svg>
