<svg id="Capa_1" enable-background="new 0 0 510 510" height="512" viewBox="0 0 510 510" width="512" xmlns="http://www.w3.org/2000/svg"><g><path d="m90 390h70c5.523 0 10-4.477 10-10v-40c0-5.523-4.477-10-10-10h-70c-5.523 0-10 4.477-10 10v40c0 5.523 4.477 10 10 10zm10-40h50v20h-50z"/><path d="m350 390h70c5.523 0 10-4.477 10-10v-40c0-5.523-4.477-10-10-10h-70c-5.523 0-10 4.477-10 10v40c0 5.523 4.477 10 10 10zm10-40h50v20h-50z"/><path d="m200 350h110c5.523 0 10-4.477 10-10s-4.477-10-10-10h-110c-5.523 0-10 4.477-10 10s4.477 10 10 10z"/><path d="m200 390h110c5.523 0 10-4.477 10-10s-4.477-10-10-10h-110c-5.523 0-10 4.477-10 10s4.477 10 10 10z"/><path d="m265 40h-70c-5.523 0-10 4.477-10 10s4.477 10 10 10h70c5.523 0 10-4.477 10-10s-4.477-10-10-10z"/><path d="m315 40h-10c-5.523 0-10 4.477-10 10s4.477 10 10 10h10c5.523 0 10-4.477 10-10s-4.477-10-10-10z"/><path d="m500 100h-30v-60c0-22.056-17.944-40-40-40h-350c-22.056 0-40 17.944-40 40v60h-30c-5.523 0-10 4.477-10 10v100c0 5.523 4.477 10 10 10h30v190c0 22.056 17.944 40 40 40v50c0 5.523 4.477 10 10 10h70c5.523 0 10-4.477 10-10v-50h170v50c0 5.523 4.477 10 10 10h70c5.523 0 10-4.477 10-10v-50c22.056 0 40-17.944 40-40v-190h30c5.523 0 10-4.477 10-10v-100c0-5.523-4.477-10-10-10zm-460 100h-20v-80h20zm110 290h-50v-40h50zm260 0h-50v-40h50zm40-80c0 11.028-8.972 20-20 20-111.114 0-238.807 0-350 0-11.028 0-20-8.972-20-20v-120h390zm0-140h-390v-170h390zm0-190h-390v-40c0-11.028 8.972-20 20-20h350c11.028 0 20 8.972 20 20zm40 120h-20v-80h20z"/></g></svg>