<?xml version="1.0" encoding="UTF-8"?>
<svg width="1200pt" height="1200pt" version="1.1" viewBox="0 0 1200 1200" xmlns="http://www.w3.org/2000/svg" xmlns:svgjs="http://svgjs.com/svgjs">
 <g fill="#ff001b">
  <path d="m699.6 769.2c-25.199 63.602-87.602 109.2-160.8 109.2-94.801 0-172.8-76.801-172.8-172.8 0-67.199 38.398-126 94.801-153.6l-10.801-55.199c-80.398 34.805-138 115.2-138 210 0 124.8 102 226.8 226.8 226.8 73.199 0 138-34.801 180-88.801 0-1.1992-1.1992-3.6016-1.1992-4.8008z"/>
  <path d="m842.4 771.6-37.199 8.3984-42-165.6c-3.6016-15.602-18-27.602-34.801-27.602l-158.4 0.003906-7.1992-42h104.4c20.398 0 36-16.801 36-36 0-20.398-16.801-36-36-36h-117.6l-15.602-78c22.801-10.801 39.602-33.602 39.602-61.199 0-37.199-30-67.199-67.199-67.199-37.199 0-67.199 30-67.199 67.199 0 16.801 6 32.398 16.801 44.398l49.199 252c3.6016 16.801 18 30 36 30h159.6l43.199 172.8c3.6016 16.801 19.199 27.602 34.801 27.602 2.3984 0 6 0 8.3984-1.1992l72-16.801c19.199-4.8008 31.199-24 26.398-44.398-3.5977-19.203-22.797-31.203-43.199-26.402z"/>
  <path d="m600 44.398c-307.2 0-555.6 248.4-555.6 555.6s248.4 555.6 555.6 555.6 555.6-248.4 555.6-555.6-248.4-555.6-555.6-555.6zm0 1009.2c-106.8 0-205.2-37.199-283.2-99.602l67.199-66c-26.398-22.801-48-50.398-62.398-82.801l-76.801 76.801c-62.398-78-99.602-176.4-99.602-283.2 0-250.8 204-453.6 453.6-453.6 106.8 0 205.2 37.199 283.2 99.602l-216 216c26.398 0 48 21.602 48 48 0 26.398-21.602 48-48 48h-90l3.6016 18h116.4l258-258c62.398 78 99.602 176.4 99.602 283.2 0 250.8-202.8 453.6-453.6 453.6z"/>
  <path d="m440.4 831.6 159.6-159.6h-60c-22.801 0-42-15.602-46.801-37.199l-109.2 109.2c8.3984 36 28.801 66 56.398 87.602z"/>
 </g>
</svg>
