<?xml version="1.0" encoding="UTF-8" standalone="no"?>
<!-- Created with Inkscape (http://www.inkscape.org/) -->

<svg
   version="1.1"
   id="svg3264"
   xml:space="preserve"
   width="682.66669"
   height="682.66669"
   viewBox="0 0 682.66669 682.66669"
   xmlns="http://www.w3.org/2000/svg"
   xmlns:svg="http://www.w3.org/2000/svg"><defs
     id="defs3268"><clipPath
       clipPathUnits="userSpaceOnUse"
       id="clipPath3278"><path
         d="M 0,512 H 512 V 0 H 0 Z"
         id="path3276" /></clipPath></defs><g
     id="g3270"
     transform="matrix(1.3333333,0,0,-1.3333333,0,682.66667)"><g
       id="g3272"><g
         id="g3274"
         clip-path="url(#clipPath3278)"><g
           id="g3280"
           transform="translate(65.1841,180.4268)"><path
             d="m 0,0 c 24.177,-0.661 46.064,-17.027 52.644,-41.583 8.021,-29.934 -9.744,-60.703 -39.678,-68.724 -29.934,-8.021 -60.703,9.744 -68.724,39.678 -6.579,24.553 4.189,49.667 24.792,62.329"
             style="fill:none;stroke:#000000;stroke-width:15;stroke-linecap:round;stroke-linejoin:round;stroke-miterlimit:10;stroke-dasharray:none;stroke-opacity:1"
             id="path3282" /></g><g
           id="g3284"
           transform="translate(181.3647,118.5234)"><path
             d="m 0,0 c 2.865,-10.691 -3.479,-21.68 -14.17,-24.544 -10.691,-2.865 -21.68,3.48 -24.545,14.17 -2.865,10.691 3.48,21.68 14.171,24.545 C -13.854,17.035 -2.864,10.691 0,0 Z"
             style="fill:none;stroke:#000000;stroke-width:15;stroke-linecap:round;stroke-linejoin:round;stroke-miterlimit:10;stroke-dasharray:none;stroke-opacity:1"
             id="path3286" /></g><g
           id="g3288"
           transform="translate(29.4683,189.8584)"><path
             d="m 0,0 12.448,-46.458 c 2.292,-8.553 11.083,-13.628 19.636,-11.336 8.553,2.291 13.628,11.082 11.336,19.635 L 30.972,8.299"
             style="fill:none;stroke:#000000;stroke-width:15;stroke-linecap:round;stroke-linejoin:round;stroke-miterlimit:10;stroke-dasharray:none;stroke-opacity:1"
             id="path3290" /></g><g
           id="g3292"
           transform="translate(71.7021,280.0142)"><path
             d="m 0,0 c 2.865,-10.69 -3.479,-21.68 -14.17,-24.544 -10.691,-2.865 -21.68,3.48 -24.545,14.17 -2.865,10.691 3.48,21.68 14.171,24.545 C -13.854,17.036 -2.864,10.691 0,0 Z"
             style="fill:none;stroke:#000000;stroke-width:15;stroke-linecap:round;stroke-linejoin:round;stroke-miterlimit:10;stroke-dasharray:none;stroke-opacity:1"
             id="path3294" /></g><g
           id="g3296"
           transform="translate(152.9492,131.6567)"><path
             d="m 0,0 -8.299,30.972 c -2.292,8.553 -11.083,13.628 -19.636,11.337 l -23.229,-6.225 -10.373,38.715 c -4.584,17.106 -22.166,27.257 -39.271,22.673 -17.105,-4.583 -27.256,-22.165 -22.673,-39.27 l 6.224,-23.229"
             style="fill:none;stroke:#000000;stroke-width:15;stroke-linecap:round;stroke-linejoin:round;stroke-miterlimit:10;stroke-dasharray:none;stroke-opacity:1"
             id="path3298" /></g><g
           id="g3300"
           transform="translate(223.9355,127.7407)"><path
             d="m 0,0 v -40.08 h 280.564 v 352.71 c 0,8.854 -7.177,16.033 -16.032,16.033 H 16.032 C 7.178,328.663 0,321.484 0,312.63 V 32.07"
             style="fill:none;stroke:#000000;stroke-width:15;stroke-linecap:round;stroke-linejoin:round;stroke-miterlimit:10;stroke-dasharray:none;stroke-opacity:1"
             id="path3302" /></g><g
           id="g3304"
           transform="translate(223.9355,87.6611)"><path
             d="m 0,0 v -24.048 c 0,-4.428 3.589,-8.016 8.016,-8.016 h 24.048 c 4.428,0 8.017,3.588 8.017,8.016 V 0"
             style="fill:none;stroke:#000000;stroke-width:15;stroke-linecap:round;stroke-linejoin:round;stroke-miterlimit:10;stroke-dasharray:none;stroke-opacity:1"
             id="path3306" /></g><g
           id="g3308"
           transform="translate(464.4194,87.6611)"><path
             d="m 0,0 v -24.048 c 0,-4.428 3.589,-8.016 8.016,-8.016 h 24.048 c 4.428,0 8.017,3.588 8.017,8.016 V 0"
             style="fill:none;stroke:#000000;stroke-width:15;stroke-linecap:round;stroke-linejoin:round;stroke-miterlimit:10;stroke-dasharray:none;stroke-opacity:1"
             id="path3310" /></g><g
           id="g3312"
           transform="translate(223.9355,103.6934)"><path
             d="m 0,0 h -9.934 c -7.005,0 -13.981,-0.918 -20.748,-2.731 l -169.304,-45.366"
             style="fill:none;stroke:#000000;stroke-width:15;stroke-linecap:round;stroke-linejoin:round;stroke-miterlimit:10;stroke-dasharray:none;stroke-opacity:1"
             id="path3314" /></g><g
           id="g3316"
           transform="translate(472.4355,336.1626)"><path
             d="m 0,0 v -128.259 c 0,-4.428 -3.589,-8.016 -8.016,-8.016 h -200.403 c -4.428,0 -8.017,3.588 -8.017,8.016 V 48.096 c 0,4.426 3.589,8.016 8.017,8.016 H -8.016 C -3.589,56.112 0,52.522 0,48.096 v -16.03"
             style="fill:none;stroke:#000000;stroke-width:15;stroke-linecap:round;stroke-linejoin:round;stroke-miterlimit:10;stroke-dasharray:none;stroke-opacity:1"
             id="path3318" /></g><g
           id="g3320"
           transform="translate(272.0322,119.7256)"><path
             d="m 0,0 v 0 c -8.854,0 -16.032,7.178 -16.032,16.032 v 16.033 c 0,8.854 7.178,16.032 16.032,16.032 8.854,0 16.032,-7.178 16.032,-16.032 V 16.032 C 16.032,7.178 8.854,0 0,0 Z"
             style="fill:none;stroke:#000000;stroke-width:15;stroke-linecap:round;stroke-linejoin:round;stroke-miterlimit:10;stroke-dasharray:none;stroke-opacity:1"
             id="path3322" /></g><g
           id="g3324"
           transform="translate(456.4033,119.7256)"><path
             d="m 0,0 v 0 c -8.854,0 -16.032,7.178 -16.032,16.032 v 16.033 c 0,8.854 7.178,16.032 16.032,16.032 8.854,0 16.032,-7.178 16.032,-16.032 V 16.032 C 16.032,7.178 8.854,0 0,0 Z"
             style="fill:none;stroke:#000000;stroke-width:15;stroke-linecap:round;stroke-linejoin:round;stroke-miterlimit:10;stroke-dasharray:none;stroke-opacity:1"
             id="path3326" /></g><g
           id="g3328"
           transform="translate(320.1289,159.8066)"><path
             d="M 0,0 H 80.162"
             style="fill:none;stroke:#000000;stroke-width:15;stroke-linecap:round;stroke-linejoin:round;stroke-miterlimit:10;stroke-dasharray:none;stroke-opacity:1"
             id="path3330" /></g><g
           id="g3332"
           transform="translate(320.1289,127.7417)"><path
             d="M 0,0 H 80.162"
             style="fill:none;stroke:#000000;stroke-width:15;stroke-linecap:round;stroke-linejoin:round;stroke-miterlimit:10;stroke-dasharray:none;stroke-opacity:1"
             id="path3334" /></g><g
           id="g3336"
           transform="translate(384.2583,392.2744)"><path
             d="m 0,0 v 24.048 c 0,4.428 -3.589,8.016 -8.017,8.016 h -24.048 c -4.427,0 -8.016,-3.588 -8.016,-8.016 V 0"
             style="fill:none;stroke:#000000;stroke-width:15;stroke-linecap:round;stroke-linejoin:round;stroke-miterlimit:10;stroke-dasharray:none;stroke-opacity:1"
             id="path3338" /></g></g></g></g></svg>
